# xmcd
#
# Track frame offsets:
#	150
#	18343
#	39129
#	55115
#	71860
#	97443
#	121388
#	145472
#	160044
#	177793
#	198940
#	212700
#
# Disc length: 3007 seconds
#
# Revision: 1
# Processed by: cddbd v1.5.2PL0 Copyright (c) Steve Scherf et al.
# Submitted via: audiograbber 1.83.01
#
DISCID=aa0bbd0c
DTITLE=The Band - The Band, Platinum 
DYEAR=1900
DGENRE=
TTITLE0=Shape I'm In, The
TTITLE1=Weight, The
TTITLE2=Night They Drove Old Dixie Down, The
TTITLE3=Stage Fright
TTITLE4=Mistery Train
TTITLE5=Jupiter Hollow
TTITLE6=Tears Of Rage
TTITLE7=I Shall Be Released
TTITLE8=Life Is A Carnival
TTITLE9=River Hymn, The
TTITLE10=Long Black Veil
TTITLE11=Livin' In A Dream
EXTD=
EXTT0=
EXTT1=
EXTT2=
EXTT3=
EXTT4=
EXTT5=
EXTT6=
EXTT7=
EXTT8=
EXTT9=
EXTT10=
EXTT11=
PLAYORDER=
